<?xml version="1.0" encoding="UTF-8" standalone="no"?>
<!DOCTYPE svg PUBLIC "-//W3C//DTD SVG 1.1//EN"
 "http://www.w3.org/Graphics/SVG/1.1/DTD/svg11.dtd">
<!-- Generated by graphviz version 13.0.0 (20250608.1624)
 -->
<!-- Pages: 1 -->
<svg width="515pt" height="798pt"
 viewBox="0.00 0.00 515.00 798.00" xmlns="http://www.w3.org/2000/svg" xmlns:xlink="http://www.w3.org/1999/xlink">
<g id="graph0" class="graph" transform="scale(1 1) rotate(0) translate(4 794.25)">
<polygon fill="white" stroke="none" points="-4,4 -4,-794.25 511,-794.25 511,4 -4,4"/>
<!-- 2228697633376 -->
<g id="node1" class="node">
<title>2228697633376</title>
<polygon fill="#caff70" stroke="black" points="332,-32.75 268,-32.75 268,0 332,0 332,-32.75"/>
<text xml:space="preserve" text-anchor="middle" x="300" y="-7.25" font-family="monospace" font-size="10.00"> (1, 10)</text>
</g>
<!-- 2228748538720 -->
<g id="node2" class="node">
<title>2228748538720</title>
<polygon fill="lightgrey" stroke="black" points="350,-89.5 250,-89.5 250,-68.75 350,-68.75 350,-89.5"/>
<text xml:space="preserve" text-anchor="middle" x="300" y="-76" font-family="monospace" font-size="10.00">AddmmBackward0</text>
</g>
<!-- 2228748538720&#45;&gt;2228697633376 -->
<g id="edge28" class="edge">
<title>2228748538720&#45;&gt;2228697633376</title>
<path fill="none" stroke="black" d="M300,-68.36C300,-61.89 300,-53.05 300,-44.55"/>
<polygon fill="black" stroke="black" points="303.5,-44.55 300,-34.55 296.5,-44.55 303.5,-44.55"/>
</g>
<!-- 2228748538432 -->
<g id="node3" class="node">
<title>2228748538432</title>
<polygon fill="lightgrey" stroke="black" points="235,-146.25 135,-146.25 135,-125.5 235,-125.5 235,-146.25"/>
<text xml:space="preserve" text-anchor="middle" x="185" y="-132.75" font-family="monospace" font-size="10.00">AccumulateGrad</text>
</g>
<!-- 2228748538432&#45;&gt;2228748538720 -->
<g id="edge1" class="edge">
<title>2228748538432&#45;&gt;2228748538720</title>
<path fill="none" stroke="black" d="M205.56,-125.09C223.3,-116.64 249.18,-104.32 269.37,-94.71"/>
<polygon fill="black" stroke="black" points="270.73,-97.94 278.25,-90.48 267.72,-91.62 270.73,-97.94"/>
</g>
<!-- 2228697633536 -->
<g id="node4" class="node">
<title>2228697633536</title>
<polygon fill="lightblue" stroke="black" points="217,-215.75 153,-215.75 153,-182.25 217,-182.25 217,-215.75"/>
<text xml:space="preserve" text-anchor="middle" x="185" y="-202.25" font-family="monospace" font-size="10.00">fc2.bias</text>
<text xml:space="preserve" text-anchor="middle" x="185" y="-189.5" font-family="monospace" font-size="10.00"> (10)</text>
</g>
<!-- 2228697633536&#45;&gt;2228748538432 -->
<g id="edge2" class="edge">
<title>2228697633536&#45;&gt;2228748538432</title>
<path fill="none" stroke="black" d="M185,-181.94C185,-174.6 185,-165.82 185,-157.96"/>
<polygon fill="black" stroke="black" points="188.5,-158.23 185,-148.23 181.5,-158.23 188.5,-158.23"/>
</g>
<!-- 2228748538528 -->
<g id="node5" class="node">
<title>2228748538528</title>
<polygon fill="lightgrey" stroke="black" points="347,-146.25 253,-146.25 253,-125.5 347,-125.5 347,-146.25"/>
<text xml:space="preserve" text-anchor="middle" x="300" y="-132.75" font-family="monospace" font-size="10.00">ReluBackward0</text>
</g>
<!-- 2228748538528&#45;&gt;2228748538720 -->
<g id="edge3" class="edge">
<title>2228748538528&#45;&gt;2228748538720</title>
<path fill="none" stroke="black" d="M300,-125.09C300,-118.47 300,-109.47 300,-101.27"/>
<polygon fill="black" stroke="black" points="303.5,-101.34 300,-91.34 296.5,-101.34 303.5,-101.34"/>
</g>
<!-- 2228748538576 -->
<g id="node6" class="node">
<title>2228748538576</title>
<polygon fill="lightgrey" stroke="black" points="342,-209.38 242,-209.38 242,-188.62 342,-188.62 342,-209.38"/>
<text xml:space="preserve" text-anchor="middle" x="292" y="-195.88" font-family="monospace" font-size="10.00">AddmmBackward0</text>
</g>
<!-- 2228748538576&#45;&gt;2228748538528 -->
<g id="edge4" class="edge">
<title>2228748538576&#45;&gt;2228748538528</title>
<path fill="none" stroke="black" d="M293.29,-188.18C294.35,-180.02 295.91,-168.13 297.25,-157.85"/>
<polygon fill="black" stroke="black" points="300.72,-158.34 298.55,-147.97 293.78,-157.43 300.72,-158.34"/>
</g>
<!-- 2228748538144 -->
<g id="node7" class="node">
<title>2228748538144</title>
<polygon fill="lightgrey" stroke="black" points="192,-278.88 92,-278.88 92,-258.12 192,-258.12 192,-278.88"/>
<text xml:space="preserve" text-anchor="middle" x="142" y="-265.38" font-family="monospace" font-size="10.00">AccumulateGrad</text>
</g>
<!-- 2228748538144&#45;&gt;2228748538576 -->
<g id="edge5" class="edge">
<title>2228748538144&#45;&gt;2228748538576</title>
<path fill="none" stroke="black" d="M163.81,-257.68C189.03,-246.34 230.77,-227.55 259.75,-214.51"/>
<polygon fill="black" stroke="black" points="261.1,-217.74 268.78,-210.45 258.23,-211.36 261.1,-217.74"/>
</g>
<!-- 2228697633696 -->
<g id="node8" class="node">
<title>2228697633696</title>
<polygon fill="lightblue" stroke="black" points="159,-354.75 95,-354.75 95,-321.25 159,-321.25 159,-354.75"/>
<text xml:space="preserve" text-anchor="middle" x="127" y="-341.25" font-family="monospace" font-size="10.00">fc1.bias</text>
<text xml:space="preserve" text-anchor="middle" x="127" y="-328.5" font-family="monospace" font-size="10.00"> (32)</text>
</g>
<!-- 2228697633696&#45;&gt;2228748538144 -->
<g id="edge6" class="edge">
<title>2228697633696&#45;&gt;2228748538144</title>
<path fill="none" stroke="black" d="M130.55,-321C132.6,-311.8 135.19,-300.14 137.39,-290.24"/>
<polygon fill="black" stroke="black" points="140.74,-291.32 139.49,-280.8 133.9,-289.8 140.74,-291.32"/>
</g>
<!-- 2228748538192 -->
<g id="node9" class="node">
<title>2228748538192</title>
<polygon fill="lightgrey" stroke="black" points="319,-278.88 225,-278.88 225,-258.12 319,-258.12 319,-278.88"/>
<text xml:space="preserve" text-anchor="middle" x="272" y="-265.38" font-family="monospace" font-size="10.00">ViewBackward0</text>
</g>
<!-- 2228748538192&#45;&gt;2228748538576 -->
<g id="edge7" class="edge">
<title>2228748538192&#45;&gt;2228748538576</title>
<path fill="none" stroke="black" d="M274.87,-257.83C277.75,-248.1 282.28,-232.82 285.96,-220.4"/>
<polygon fill="black" stroke="black" points="289.22,-221.69 288.71,-211.1 282.51,-219.7 289.22,-221.69"/>
</g>
<!-- 2228748538048 -->
<g id="node10" class="node">
<title>2228748538048</title>
<polygon fill="lightgrey" stroke="black" points="367,-348.38 177,-348.38 177,-327.62 367,-327.62 367,-348.38"/>
<text xml:space="preserve" text-anchor="middle" x="272" y="-334.88" font-family="monospace" font-size="10.00">MaxPool2DWithIndicesBackward0</text>
</g>
<!-- 2228748538048&#45;&gt;2228748538192 -->
<g id="edge8" class="edge">
<title>2228748538048&#45;&gt;2228748538192</title>
<path fill="none" stroke="black" d="M272,-327.33C272,-317.71 272,-302.63 272,-290.29"/>
<polygon fill="black" stroke="black" points="275.5,-290.67 272,-280.67 268.5,-290.67 275.5,-290.67"/>
</g>
<!-- 2228748537760 -->
<g id="node11" class="node">
<title>2228748537760</title>
<polygon fill="lightgrey" stroke="black" points="319,-417.88 225,-417.88 225,-397.12 319,-397.12 319,-417.88"/>
<text xml:space="preserve" text-anchor="middle" x="272" y="-404.38" font-family="monospace" font-size="10.00">ReluBackward0</text>
</g>
<!-- 2228748537760&#45;&gt;2228748538048 -->
<g id="edge9" class="edge">
<title>2228748537760&#45;&gt;2228748538048</title>
<path fill="none" stroke="black" d="M272,-396.83C272,-387.21 272,-372.13 272,-359.79"/>
<polygon fill="black" stroke="black" points="275.5,-360.17 272,-350.17 268.5,-360.17 275.5,-360.17"/>
</g>
<!-- 2228748537664 -->
<g id="node12" class="node">
<title>2228748537664</title>
<polygon fill="lightgrey" stroke="black" points="340,-481 204,-481 204,-460.25 340,-460.25 340,-481"/>
<text xml:space="preserve" text-anchor="middle" x="272" y="-467.5" font-family="monospace" font-size="10.00">ConvolutionBackward0</text>
</g>
<!-- 2228748537664&#45;&gt;2228748537760 -->
<g id="edge10" class="edge">
<title>2228748537664&#45;&gt;2228748537760</title>
<path fill="none" stroke="black" d="M272,-459.8C272,-451.65 272,-439.76 272,-429.48"/>
<polygon fill="black" stroke="black" points="275.5,-429.61 272,-419.61 268.5,-429.61 275.5,-429.61"/>
</g>
<!-- 2228748537520 -->
<g id="node13" class="node">
<title>2228748537520</title>
<polygon fill="lightgrey" stroke="black" points="204,-537.75 14,-537.75 14,-517 204,-517 204,-537.75"/>
<text xml:space="preserve" text-anchor="middle" x="109" y="-524.25" font-family="monospace" font-size="10.00">MaxPool2DWithIndicesBackward0</text>
</g>
<!-- 2228748537520&#45;&gt;2228748537664 -->
<g id="edge11" class="edge">
<title>2228748537520&#45;&gt;2228748537664</title>
<path fill="none" stroke="black" d="M138.14,-516.59C164.37,-507.78 203.14,-494.75 232.21,-484.99"/>
<polygon fill="black" stroke="black" points="233.04,-488.4 241.4,-481.9 230.81,-481.77 233.04,-488.4"/>
</g>
<!-- 2228748539392 -->
<g id="node14" class="node">
<title>2228748539392</title>
<polygon fill="lightgrey" stroke="black" points="156,-600.88 62,-600.88 62,-580.12 156,-580.12 156,-600.88"/>
<text xml:space="preserve" text-anchor="middle" x="109" y="-587.38" font-family="monospace" font-size="10.00">ReluBackward0</text>
</g>
<!-- 2228748539392&#45;&gt;2228748537520 -->
<g id="edge12" class="edge">
<title>2228748539392&#45;&gt;2228748537520</title>
<path fill="none" stroke="black" d="M109,-579.68C109,-571.52 109,-559.63 109,-549.35"/>
<polygon fill="black" stroke="black" points="112.5,-549.48 109,-539.48 105.5,-549.48 112.5,-549.48"/>
</g>
<!-- 2228748539488 -->
<g id="node15" class="node">
<title>2228748539488</title>
<polygon fill="lightgrey" stroke="black" points="177,-664 41,-664 41,-643.25 177,-643.25 177,-664"/>
<text xml:space="preserve" text-anchor="middle" x="109" y="-650.5" font-family="monospace" font-size="10.00">ConvolutionBackward0</text>
</g>
<!-- 2228748539488&#45;&gt;2228748539392 -->
<g id="edge13" class="edge">
<title>2228748539488&#45;&gt;2228748539392</title>
<path fill="none" stroke="black" d="M109,-642.8C109,-634.65 109,-622.76 109,-612.48"/>
<polygon fill="black" stroke="black" points="112.5,-612.61 109,-602.61 105.5,-612.61 112.5,-612.61"/>
</g>
<!-- 2228748539584 -->
<g id="node16" class="node">
<title>2228748539584</title>
<polygon fill="lightgrey" stroke="black" points="100,-720.75 0,-720.75 0,-700 100,-700 100,-720.75"/>
<text xml:space="preserve" text-anchor="middle" x="50" y="-707.25" font-family="monospace" font-size="10.00">AccumulateGrad</text>
</g>
<!-- 2228748539584&#45;&gt;2228748539488 -->
<g id="edge14" class="edge">
<title>2228748539584&#45;&gt;2228748539488</title>
<path fill="none" stroke="black" d="M60.55,-699.59C68.77,-691.96 80.4,-681.17 90.2,-672.07"/>
<polygon fill="black" stroke="black" points="92.48,-674.73 97.43,-665.36 87.72,-669.59 92.48,-674.73"/>
</g>
<!-- 2228697634176 -->
<g id="node17" class="node">
<title>2228697634176</title>
<polygon fill="lightblue" stroke="black" points="100,-790.25 0,-790.25 0,-756.75 100,-756.75 100,-790.25"/>
<text xml:space="preserve" text-anchor="middle" x="50" y="-776.75" font-family="monospace" font-size="10.00">conv1.weight</text>
<text xml:space="preserve" text-anchor="middle" x="50" y="-764" font-family="monospace" font-size="10.00"> (16, 1, 8, 8)</text>
</g>
<!-- 2228697634176&#45;&gt;2228748539584 -->
<g id="edge15" class="edge">
<title>2228697634176&#45;&gt;2228748539584</title>
<path fill="none" stroke="black" d="M50,-756.44C50,-749.1 50,-740.32 50,-732.46"/>
<polygon fill="black" stroke="black" points="53.5,-732.73 50,-722.73 46.5,-732.73 53.5,-732.73"/>
</g>
<!-- 2228748539536 -->
<g id="node18" class="node">
<title>2228748539536</title>
<polygon fill="lightgrey" stroke="black" points="218,-720.75 118,-720.75 118,-700 218,-700 218,-720.75"/>
<text xml:space="preserve" text-anchor="middle" x="168" y="-707.25" font-family="monospace" font-size="10.00">AccumulateGrad</text>
</g>
<!-- 2228748539536&#45;&gt;2228748539488 -->
<g id="edge16" class="edge">
<title>2228748539536&#45;&gt;2228748539488</title>
<path fill="none" stroke="black" d="M157.45,-699.59C149.23,-691.96 137.6,-681.17 127.8,-672.07"/>
<polygon fill="black" stroke="black" points="130.28,-669.59 120.57,-665.36 125.52,-674.73 130.28,-669.59"/>
</g>
<!-- 2228697634096 -->
<g id="node19" class="node">
<title>2228697634096</title>
<polygon fill="lightblue" stroke="black" points="206,-790.25 130,-790.25 130,-756.75 206,-756.75 206,-790.25"/>
<text xml:space="preserve" text-anchor="middle" x="168" y="-776.75" font-family="monospace" font-size="10.00">conv1.bias</text>
<text xml:space="preserve" text-anchor="middle" x="168" y="-764" font-family="monospace" font-size="10.00"> (16)</text>
</g>
<!-- 2228697634096&#45;&gt;2228748539536 -->
<g id="edge17" class="edge">
<title>2228697634096&#45;&gt;2228748539536</title>
<path fill="none" stroke="black" d="M168,-756.44C168,-749.1 168,-740.32 168,-732.46"/>
<polygon fill="black" stroke="black" points="171.5,-732.73 168,-722.73 164.5,-732.73 171.5,-732.73"/>
</g>
<!-- 2228748537616 -->
<g id="node20" class="node">
<title>2228748537616</title>
<polygon fill="lightgrey" stroke="black" points="322,-537.75 222,-537.75 222,-517 322,-517 322,-537.75"/>
<text xml:space="preserve" text-anchor="middle" x="272" y="-524.25" font-family="monospace" font-size="10.00">AccumulateGrad</text>
</g>
<!-- 2228748537616&#45;&gt;2228748537664 -->
<g id="edge18" class="edge">
<title>2228748537616&#45;&gt;2228748537664</title>
<path fill="none" stroke="black" d="M272,-516.59C272,-509.97 272,-500.97 272,-492.77"/>
<polygon fill="black" stroke="black" points="275.5,-492.84 272,-482.84 268.5,-492.84 275.5,-492.84"/>
</g>
<!-- 2228721627552 -->
<g id="node21" class="node">
<title>2228721627552</title>
<polygon fill="lightblue" stroke="black" points="325,-607.25 219,-607.25 219,-573.75 325,-573.75 325,-607.25"/>
<text xml:space="preserve" text-anchor="middle" x="272" y="-593.75" font-family="monospace" font-size="10.00">conv2.weight</text>
<text xml:space="preserve" text-anchor="middle" x="272" y="-581" font-family="monospace" font-size="10.00"> (32, 16, 4, 4)</text>
</g>
<!-- 2228721627552&#45;&gt;2228748537616 -->
<g id="edge19" class="edge">
<title>2228721627552&#45;&gt;2228748537616</title>
<path fill="none" stroke="black" d="M272,-573.44C272,-566.1 272,-557.32 272,-549.46"/>
<polygon fill="black" stroke="black" points="275.5,-549.73 272,-539.73 268.5,-549.73 275.5,-549.73"/>
</g>
<!-- 2228748537952 -->
<g id="node22" class="node">
<title>2228748537952</title>
<polygon fill="lightgrey" stroke="black" points="440,-537.75 340,-537.75 340,-517 440,-517 440,-537.75"/>
<text xml:space="preserve" text-anchor="middle" x="390" y="-524.25" font-family="monospace" font-size="10.00">AccumulateGrad</text>
</g>
<!-- 2228748537952&#45;&gt;2228748537664 -->
<g id="edge20" class="edge">
<title>2228748537952&#45;&gt;2228748537664</title>
<path fill="none" stroke="black" d="M368.9,-516.59C350.61,-508.1 323.9,-495.7 303.14,-486.08"/>
<polygon fill="black" stroke="black" points="304.83,-483 294.29,-481.97 301.88,-489.35 304.83,-483"/>
</g>
<!-- 2228697633856 -->
<g id="node23" class="node">
<title>2228697633856</title>
<polygon fill="lightblue" stroke="black" points="428,-607.25 352,-607.25 352,-573.75 428,-573.75 428,-607.25"/>
<text xml:space="preserve" text-anchor="middle" x="390" y="-593.75" font-family="monospace" font-size="10.00">conv2.bias</text>
<text xml:space="preserve" text-anchor="middle" x="390" y="-581" font-family="monospace" font-size="10.00"> (32)</text>
</g>
<!-- 2228697633856&#45;&gt;2228748537952 -->
<g id="edge21" class="edge">
<title>2228697633856&#45;&gt;2228748537952</title>
<path fill="none" stroke="black" d="M390,-573.44C390,-566.1 390,-557.32 390,-549.46"/>
<polygon fill="black" stroke="black" points="393.5,-549.73 390,-539.73 386.5,-549.73 393.5,-549.73"/>
</g>
<!-- 2228748538624 -->
<g id="node24" class="node">
<title>2228748538624</title>
<polygon fill="lightgrey" stroke="black" points="413,-278.88 337,-278.88 337,-258.12 413,-258.12 413,-278.88"/>
<text xml:space="preserve" text-anchor="middle" x="375" y="-265.38" font-family="monospace" font-size="10.00">TBackward0</text>
</g>
<!-- 2228748538624&#45;&gt;2228748538576 -->
<g id="edge22" class="edge">
<title>2228748538624&#45;&gt;2228748538576</title>
<path fill="none" stroke="black" d="M363.11,-257.83C349.99,-247.16 328.65,-229.8 312.76,-216.88"/>
<polygon fill="black" stroke="black" points="315.28,-214.42 305.31,-210.83 310.86,-219.85 315.28,-214.42"/>
</g>
<!-- 2228748537712 -->
<g id="node25" class="node">
<title>2228748537712</title>
<polygon fill="lightgrey" stroke="black" points="485,-348.38 385,-348.38 385,-327.62 485,-327.62 485,-348.38"/>
<text xml:space="preserve" text-anchor="middle" x="435" y="-334.88" font-family="monospace" font-size="10.00">AccumulateGrad</text>
</g>
<!-- 2228748537712&#45;&gt;2228748538624 -->
<g id="edge23" class="edge">
<title>2228748537712&#45;&gt;2228748538624</title>
<path fill="none" stroke="black" d="M426.4,-327.33C417.23,-317 402.47,-300.4 391.12,-287.63"/>
<polygon fill="black" stroke="black" points="393.85,-285.43 384.59,-280.28 388.61,-290.08 393.85,-285.43"/>
</g>
<!-- 2228697633776 -->
<g id="node26" class="node">
<title>2228697633776</title>
<polygon fill="lightblue" stroke="black" points="473,-424.25 397,-424.25 397,-390.75 473,-390.75 473,-424.25"/>
<text xml:space="preserve" text-anchor="middle" x="435" y="-410.75" font-family="monospace" font-size="10.00">fc1.weight</text>
<text xml:space="preserve" text-anchor="middle" x="435" y="-398" font-family="monospace" font-size="10.00"> (32, 800)</text>
</g>
<!-- 2228697633776&#45;&gt;2228748537712 -->
<g id="edge24" class="edge">
<title>2228697633776&#45;&gt;2228748537712</title>
<path fill="none" stroke="black" d="M435,-390.5C435,-381.4 435,-369.89 435,-360.07"/>
<polygon fill="black" stroke="black" points="438.5,-360.34 435,-350.34 431.5,-360.34 438.5,-360.34"/>
</g>
<!-- 2228748538480 -->
<g id="node27" class="node">
<title>2228748538480</title>
<polygon fill="lightgrey" stroke="black" points="464,-146.25 388,-146.25 388,-125.5 464,-125.5 464,-146.25"/>
<text xml:space="preserve" text-anchor="middle" x="426" y="-132.75" font-family="monospace" font-size="10.00">TBackward0</text>
</g>
<!-- 2228748538480&#45;&gt;2228748538720 -->
<g id="edge25" class="edge">
<title>2228748538480&#45;&gt;2228748538720</title>
<path fill="none" stroke="black" d="M403.47,-125.09C383.76,-116.52 354.89,-103.98 332.65,-94.31"/>
<polygon fill="black" stroke="black" points="334.29,-91.21 323.72,-90.43 331.5,-97.63 334.29,-91.21"/>
</g>
<!-- 2228748537904 -->
<g id="node28" class="node">
<title>2228748537904</title>
<polygon fill="lightgrey" stroke="black" points="499,-209.38 399,-209.38 399,-188.62 499,-188.62 499,-209.38"/>
<text xml:space="preserve" text-anchor="middle" x="449" y="-195.88" font-family="monospace" font-size="10.00">AccumulateGrad</text>
</g>
<!-- 2228748537904&#45;&gt;2228748538480 -->
<g id="edge26" class="edge">
<title>2228748537904&#45;&gt;2228748538480</title>
<path fill="none" stroke="black" d="M445.3,-188.18C442.17,-179.84 437.56,-167.61 433.64,-157.18"/>
<polygon fill="black" stroke="black" points="436.94,-156.01 430.14,-147.89 430.39,-158.48 436.94,-156.01"/>
</g>
<!-- 2228697633616 -->
<g id="node29" class="node">
<title>2228697633616</title>
<polygon fill="lightblue" stroke="black" points="507,-285.25 431,-285.25 431,-251.75 507,-251.75 507,-285.25"/>
<text xml:space="preserve" text-anchor="middle" x="469" y="-271.75" font-family="monospace" font-size="10.00">fc2.weight</text>
<text xml:space="preserve" text-anchor="middle" x="469" y="-259" font-family="monospace" font-size="10.00"> (10, 32)</text>
</g>
<!-- 2228697633616&#45;&gt;2228748537904 -->
<g id="edge27" class="edge">
<title>2228697633616&#45;&gt;2228748537904</title>
<path fill="none" stroke="black" d="M464.26,-251.5C461.53,-242.3 458.08,-230.64 455.14,-220.74"/>
<polygon fill="black" stroke="black" points="458.54,-219.87 452.34,-211.27 451.83,-221.86 458.54,-219.87"/>
</g>
</g>
</svg>
